<svg width="1000" height="388" viewBox="0 0 264.58 102.66" xmlns="http://www.w3.org/2000/svg"><g stroke="#000"><path d="M2.25 55.897a134 59.787 0 0 0 130.04 45.672 134 59.787 0 0 0 130.04-45.672z" fill="#81a1c1" stroke-linecap="round" stroke-width="2.672"/><path class="st0" d="M49.69 31.376c-12.876 0-23.315 10.44-23.315 23.318S36.814 78.012 49.69 78.012c12.879 0 23.317-10.439 23.317-23.318 0-12.878-10.438-23.318-23.317-23.318zm0 35.614c-6.786 0-12.292-5.5-12.292-12.296 0-6.792 5.506-12.292 12.292-12.292 6.796 0 12.295 5.5 12.295 12.292 0 6.797-5.499 12.296-12.295 12.296zm147.54-35.614c-12.877 0-23.32 10.44-23.32 23.318s10.443 23.318 23.32 23.318c12.879 0 23.317-10.439 23.317-23.318 0-12.878-10.438-23.318-23.318-23.318zm0 35.614c-6.794 0-12.296-5.5-12.296-12.296 0-6.792 5.502-12.292 12.295-12.292 6.79 0 12.296 5.5 12.296 12.292 0 6.797-5.506 12.296-12.296 12.296z" stroke-width="1.717"/><path class="st0" d="M197.158 46.838a7.62 7.62 0 0 0-7.615 7.615c0 4.205 3.41 7.615 7.615 7.615s7.607-3.41 7.607-7.615c0-4.198-3.402-7.615-7.607-7.615zm-147.557 0a7.62 7.62 0 0 0-7.614 7.615 7.61 7.61 0 1 0 15.222 0c0-4.198-3.403-7.615-7.608-7.615z" fill="#3b5b82" stroke-width="1.755"/><path class="st0" d="M120.77 28.437h18.458l-.176-5.543-7.475-.575c-.159-.028-.293-.16-.352-.35l-.63-2.88a.72.72 0 0 1 .058-.54.49.49 0 0 1 .41-.252h7.11c-.529-5.856-3.67-10.195-8.614-11.081-7.03-1.256-12.464 4.73-11.602 11.915.352 2.923 1.584 7.531 2.812 9.306zm13.913-16.142-1.985-.153s-.913-1.4-1.698-2.488c.785 0 2.768.935 3.683 2.64z" fill="#ebcb8b" stroke-width="1.713"/><path class="st0" d="M49.621 27.922c.848 0 1.681.045 2.505.119l4.688-6.467v-14.8H20.437V44l3.9 2.186c3.526-10.597 13.526-18.264 25.284-18.264zm146.469.018c-17.343-2.595-35.075-4.217-49.505-5.229-1.022 4.528-4.35 8.595-8.56 8.595h-22.842V1.274C87.536 4.288 69.996 18.804 59.79 29.946 69.452 33.95 76.27 43.48 76.27 54.57c0 2.49-.352 4.897-.993 7.192h95.893a26.6 26.6 0 0 1-.994-7.192c-.001-14.447 11.558-26.24 25.915-26.631zm34.15 25.361v-4.227l8.04-4.228s1.486-4.925 1.486-8.309c-9.467-3.125-22.115-4.953-33.79-6.997 10.2 3.746 17.497 13.551 17.497 25.03 0 2.49-.353 4.897-.998 7.193h26.377V53.3z" fill="#e10600" stroke-width="2.284"/><text transform="scale(.9903 1.0098)" x="80.564" y="57.153" fill="#ebcb8b" font-family="sans-serif" font-size="11.421" font-weight="700" letter-spacing=".714" stroke-linecap="round" stroke-linejoin="round" stroke-width="2.855" style="line-height:1;paint-order:stroke fill markers" xml:space="preserve"><tspan x="80.564" y="57.153" dy="0">F1 <tspan>Statistics</tspan></tspan></text></g></svg>
